<svg width="1166" height="337" viewBox="0 0 1166 337" fill="none" xmlns="http://www.w3.org/2000/svg">
<path d="M7.73902 83.8325H70.1617V264.074H7.73902V83.8325Z" fill="white"/>
<path d="M70.1619 46.4067V83.8323C84.2137 83.8323 114.182 83.952 121.64 84.4311C130.963 85.0299 139.881 85.9281 148.393 90.4192C167.039 97.9043 166.228 119.461 165.417 122.156C162.499 144.432 135.017 149.801 121.64 149.701H61.2444V167.366V187.127H115.966L171.092 263.774H240C224.867 243.315 191.197 197.845 177.577 179.642C242.432 160.779 229.056 103.294 227.435 99.7007C214.788 57.0655 159.472 46.4067 133.395 46.4067H70.1619Z" fill="white"/>
<rect y="39" width="62.455" height="37.3159" fill="white"/>
<path d="M298 159.5H382.25V191H298V159.5ZM301 231.5H396.25V264H260.75V89H393V121.5H301V231.5ZM428.475 264V89H507.975C526.975 89 543.725 92.6667 558.225 100C572.725 107.167 584.058 117.25 592.225 130.25C600.391 143.25 604.475 158.667 604.475 176.5C604.475 194.167 600.391 209.583 592.225 222.75C584.058 235.75 572.725 245.917 558.225 253.25C543.725 260.417 526.975 264 507.975 264H428.475ZM468.975 230.75H505.975C517.641 230.75 527.725 228.583 536.225 224.25C544.891 219.75 551.558 213.417 556.225 205.25C561.058 197.083 563.475 187.5 563.475 176.5C563.475 165.333 561.058 155.75 556.225 147.75C551.558 139.583 544.891 133.333 536.225 129C527.725 124.5 517.641 122.25 505.975 122.25H468.975V230.75ZM642.135 266C635.468 266 629.718 263.75 624.885 259.25C620.218 254.583 617.885 248.667 617.885 241.5C617.885 234.333 620.218 228.583 624.885 224.25C629.718 219.75 635.468 217.5 642.135 217.5C648.968 217.5 654.718 219.75 659.385 224.25C664.051 228.583 666.385 234.333 666.385 241.5C666.385 248.667 664.051 254.583 659.385 259.25C654.718 263.75 648.968 266 642.135 266ZM707.414 264V104L724.914 121.5H672.414V89H747.914V264H707.414Z" fill="white"/>
<path d="M910.36 336.999C883.667 336.999 860.933 327.539 842.16 308.62C823.387 289.701 814 266.791 814 239.89C814 214.467 822.436 192.515 839.309 174.033C856.181 155.552 877.225 145.282 902.44 143.224L831.6 0H954.8L990 70.9471L1025.2 0H1148.4L1078 142.338C1102.93 144.703 1123.84 155.126 1140.71 173.608C1157.58 192.089 1166.01 214.036 1166 239.446C1166 266.643 1156.61 289.701 1137.84 308.62C1119.07 327.539 1096.19 336.999 1069.2 336.999C1066.56 336.999 1063.84 336.922 1061.05 336.768C1058.26 336.614 1055.55 336.248 1052.92 335.668C1069.05 325.026 1081.67 311.209 1090.76 294.218C1099.85 277.226 1104.4 258.969 1104.4 239.446C1104.4 207.225 1093.32 179.957 1071.17 157.644C1049.02 135.332 1021.96 124.169 990 124.157C958.027 124.157 930.97 135.32 908.829 157.644C886.688 179.969 875.612 207.236 875.6 239.446C875.6 259.548 879.707 278.467 887.92 296.204C896.133 313.941 909.04 327.096 926.64 335.668C924 336.26 921.284 336.632 918.491 336.786C915.699 336.94 912.977 337.011 910.36 336.999ZM990 319.262C968 319.262 949.297 311.499 933.891 295.974C918.485 280.448 910.788 261.606 910.8 239.446C910.8 217.276 918.503 198.427 933.909 182.902C949.315 167.376 968.012 159.619 990 159.631C1012 159.631 1030.7 167.394 1046.11 182.919C1061.51 198.445 1069.21 217.287 1069.2 239.446C1069.2 261.617 1061.5 280.466 1046.09 295.991C1030.69 311.517 1011.99 319.274 990 319.262ZM990 283.788L1003.64 253.192L1034 239.446L1003.64 225.7L990 195.105L976.36 225.7L946 239.446L976.36 253.192L990 283.788Z" fill="white"/>
</svg>
